<svg id="Layer_1" data-name="Layer 1" xmlns="http://www.w3.org/2000/svg" viewBox="0 0 105.98 104.91"><defs><style>.cls-1{fill:#cba677;}</style></defs><path class="cls-1" d="M98.58,104.91H84.21a3.5,3.5,0,0,1,0-7H98.58a.39.39,0,0,0,.4-.39V7.4a.4.4,0,0,0-.4-.4H7.4a.4.4,0,0,0-.4.4V97.52a.39.39,0,0,0,.4.39H71.89a3.5,3.5,0,1,1,0,7H7.4A7.4,7.4,0,0,1,0,97.52V7.4A7.41,7.41,0,0,1,7.4,0H98.58A7.41,7.41,0,0,1,106,7.4V97.52A7.4,7.4,0,0,1,98.58,104.91Z"/><path class="cls-1" d="M44.71,73.69a3.5,3.5,0,0,1-3.5-3.5V56H3.5a3.5,3.5,0,0,1,0-7H40.81a.4.4,0,0,0,.4-.4V33.66a3.5,3.5,0,0,1,7,0V70.19A3.5,3.5,0,0,1,44.71,73.69Z"/><path class="cls-1" d="M44.71,25.48a3.5,3.5,0,0,1-3.5-3.5V3.5a3.5,3.5,0,0,1,7,0V22A3.5,3.5,0,0,1,44.71,25.48Z"/><path class="cls-1" d="M102.48,56H59.67a3.5,3.5,0,0,1,0-7h42.81a3.5,3.5,0,0,1,0,7Z"/><path class="cls-1" d="M44.71,104.91a3.49,3.49,0,0,1-3.5-3.5V82.51a3.5,3.5,0,0,1,7,0v18.9A3.5,3.5,0,0,1,44.71,104.91Z"/></svg>